<?xml version="1.0" encoding="UTF-8"?>
<svg xmlns="http://www.w3.org/2000/svg" xmlns:xlink="http://www.w3.org/1999/xlink" width="400px" height="99px" viewBox="0 0 400 99" version="1.1">
<g id="surface1">
<path style=" stroke:none;fill-rule:evenodd;fill:rgb(35.686275%,35.686275%,35.686275%);fill-opacity:1;" d="M 13.96875 98.367188 L 20.824219 98.367188 L 28.925781 66.632812 L 36.40625 98.367188 L 43.261719 98.367188 L 56.972656 50.132812 L 48.246094 50.132812 L 40.144531 83.769531 L 32.042969 50.132812 L 25.808594 50.132812 L 17.707031 83.769531 L 17.085938 83.769531 L 8.984375 50.132812 L 0.257812 50.132812 Z M 58.21875 74.25 C 58.21875 88.210938 69.433594 99 83.144531 99 C 96.855469 99 108.074219 88.210938 108.074219 74.25 C 108.074219 60.289062 96.234375 49.5 83.144531 49.5 C 69.433594 49.5 58.21875 60.289062 58.21875 74.25 Z M 66.941406 74.25 C 66.941406 65.367188 74.421875 57.75 83.144531 57.75 C 91.871094 57.75 99.351562 65.367188 99.351562 74.25 C 99.351562 83.132812 91.871094 90.75 83.144531 90.75 C 74.421875 90.75 66.941406 83.132812 66.941406 74.25 Z M 113.0625 98.367188 L 121.785156 98.367188 L 121.785156 79.960938 L 134.25 98.367188 L 144.84375 98.367188 L 132.378906 80.597656 C 134.875 79.960938 137.367188 79.328125 139.859375 76.789062 C 143.597656 72.980469 144.84375 68.539062 144.84375 65.367188 C 144.84375 59.652344 141.730469 55.847656 139.234375 53.308594 C 136.121094 51.402344 133.003906 50.132812 127.394531 50.132812 L 113.0625 50.132812 Z M 121.785156 58.382812 L 127.394531 58.382812 C 134.25 58.382812 136.121094 63.460938 136.121094 66 C 136.121094 68.539062 134.875 72.980469 127.394531 72.980469 L 121.785156 72.980469 Z M 149.832031 98.367188 L 172.890625 98.367188 L 172.890625 90.117188 L 158.554688 90.117188 L 158.554688 50.132812 L 149.832031 50.132812 Z M 176.007812 98.367188 L 187.222656 98.367188 C 192.210938 98.367188 198.441406 97.730469 202.804688 95.191406 C 209.660156 91.382812 214.023438 83.132812 214.023438 74.25 C 214.023438 66.632812 210.90625 59.652344 206.542969 55.847656 C 203.425781 53.308594 198.441406 50.132812 187.222656 50.132812 L 176.007812 50.132812 Z M 185.355469 58.382812 L 186.601562 58.382812 C 192.210938 58.382812 196.574219 59.019531 200.3125 62.828125 C 203.425781 65.367188 205.296875 69.808594 205.296875 74.25 C 205.296875 79.328125 202.804688 85.039062 198.441406 87.578125 C 194.703125 89.480469 191.585938 90.117188 186.601562 90.117188 L 185.355469 90.117188 Z M 219.632812 98.367188 L 245.183594 98.367188 L 245.183594 90.117188 L 228.980469 90.117188 L 228.980469 78.691406 L 244.558594 78.691406 L 244.558594 70.441406 L 228.980469 70.441406 L 228.980469 58.382812 L 245.183594 58.382812 L 245.183594 50.132812 L 219.632812 50.132812 Z M 248.300781 98.367188 L 258.894531 98.367188 L 270.113281 81.867188 L 281.332031 98.367188 L 291.300781 98.367188 L 275.097656 74.25 L 291.300781 50.132812 L 281.332031 50.132812 L 270.113281 67.269531 L 258.894531 50.132812 L 248.300781 50.132812 L 265.125 74.25 Z M 248.300781 98.367188 "/>
<path style=" stroke:none;fill-rule:evenodd;fill:rgb(16.862746%,16.470589%,16.078432%);fill-opacity:1;" d="M 376.058594 0 L 399.742188 0 L 399.742188 23.480469 L 376.058594 23.480469 Z M 376.058594 0 "/>
<path style=" stroke:none;fill-rule:evenodd;fill:rgb(35.686275%,35.686275%,35.686275%);fill-opacity:1;" d="M 385.40625 99 L 301.894531 99 L 301.894531 13.960938 L 368.582031 13.960938 L 368.582031 23.480469 L 311.246094 23.480469 L 311.246094 89.480469 L 376.058594 89.480469 L 376.058594 31.730469 L 385.40625 31.730469 Z M 385.40625 99 "/>
<path style=" stroke:none;fill-rule:evenodd;fill:rgb(93.725491%,49.803922%,10.196079%);fill-opacity:1;" d="M 319.347656 31.730469 L 368.582031 31.730469 L 368.582031 81.867188 L 319.347656 81.867188 Z M 319.347656 31.730469 "/>
<path style=" stroke:none;fill-rule:nonzero;fill:rgb(99.607843%,99.607843%,99.607843%);fill-opacity:1;" d="M 323.085938 62.828125 L 324.957031 62.828125 L 324.957031 50.769531 L 323.085938 50.769531 Z M 327.449219 62.828125 L 329.316406 62.828125 L 329.316406 53.941406 L 334.304688 62.828125 L 336.796875 62.828125 L 336.796875 50.769531 L 334.304688 50.769531 L 334.304688 59.652344 L 329.941406 50.769531 L 327.449219 50.769531 Z M 338.667969 62.828125 L 341.78125 62.828125 C 343.027344 62.828125 344.273438 62.828125 345.523438 62.191406 C 347.390625 60.921875 348.015625 59.019531 348.015625 56.480469 C 348.015625 55.210938 347.390625 53.308594 346.144531 52.039062 C 345.523438 51.402344 344.273438 50.769531 341.160156 50.769531 L 338.667969 50.769531 Z M 341.160156 52.671875 C 343.027344 52.671875 343.652344 53.308594 344.898438 53.941406 C 345.523438 54.578125 346.144531 55.847656 346.144531 56.480469 C 346.144531 57.75 345.523438 59.652344 344.273438 60.289062 C 343.652344 60.289062 342.40625 60.921875 341.160156 60.921875 Z M 349.882812 62.828125 L 352.378906 62.828125 L 352.378906 50.769531 L 349.882812 50.769531 Z M 353.625 62.828125 L 355.492188 62.828125 L 356.738281 59.652344 L 361.101562 59.652344 L 362.347656 62.828125 L 364.839844 62.828125 L 359.855469 50.769531 L 357.984375 50.769531 Z M 359.234375 53.941406 L 360.480469 57.75 L 357.984375 57.75 Z M 359.234375 53.941406 "/>
</g>
</svg>
